<?xml version="1.0" encoding="UTF-8"?>
<!DOCTYPE svg PUBLIC "-//W3C//DTD SVG 1.1//EN" "http://www.w3.org/Graphics/SVG/1.1/DTD/svg11.dtd">
<svg xmlns="http://www.w3.org/2000/svg" version="1.1" width="474px" height="512px" style="shape-rendering:geometricPrecision; text-rendering:geometricPrecision; image-rendering:optimizeQuality; fill-rule:evenodd; clip-rule:evenodd" xmlns:xlink="http://www.w3.org/1999/xlink">
<g><path style="opacity:1" fill="#fcfcfb" d="M -0.5,-0.5 C 157.5,-0.5 315.5,-0.5 473.5,-0.5C 473.5,170.167 473.5,340.833 473.5,511.5C 315.5,511.5 157.5,511.5 -0.5,511.5C -0.5,352.5 -0.5,193.5 -0.5,34.5C 3.13833,43.5709 9.805,46.7376 19.5,44C 25.8229,41.1885 28.3229,36.3552 27,29.5C 23.229,25.1959 20.229,25.5293 18,30.5C 13.5204,33.7495 11.0204,32.5829 10.5,27C 12.0572,21.0308 16.0572,18.1974 22.5,18.5C 39.2151,21.5955 44.0485,30.9288 37,46.5C 32.2838,51.4784 26.4504,53.9784 19.5,54C 19.0426,54.414 18.7093,54.914 18.5,55.5C 25.7251,73.792 29.5584,92.792 30,112.5C 30.5,135.498 30.6666,158.498 30.5,181.5C 45.7448,181.824 60.9114,181.491 76,180.5C 76.0058,148.798 77.0058,117.131 79,85.5C 80.2346,65.5445 86.2346,47.2111 97,30.5C 106.317,19.2142 117.817,16.3809 131.5,22C 138.801,27.5972 140.301,34.4306 136,42.5C 132.002,47.3577 127.169,48.5244 121.5,46C 119.32,43.5823 118.987,40.9156 120.5,38C 123.233,37.2421 125.733,37.7421 128,39.5C 128.772,39.3552 129.439,39.0219 130,38.5C 130.769,35.9009 130.602,33.4009 129.5,31C 120.421,25.1971 112.921,26.6971 107,35.5C 103.888,47.4712 108.055,55.9712 119.5,61C 134.696,63.1512 144.862,56.9845 150,42.5C 151.441,27.5512 145.275,17.0512 131.5,11C 106.536,5.98472 88.2026,14.6514 76.5,37C 79.2873,39.1756 80.1207,42.009 79,45.5C 72.7808,40.0017 66.7808,40.335 61,46.5C 57.9338,49.6254 56.2671,53.2921 56,57.5C 59.9435,59.1104 62.9435,61.7771 65,65.5C 65.6667,71.1667 65.6667,76.8333 65,82.5C 63.8276,87.8537 62.6609,93.187 61.5,98.5C 60.8333,91.1667 60.1667,83.8333 59.5,76.5C 58.0755,70.6509 54.9088,65.9842 50,62.5C 49.3333,59.8333 49.3333,57.1667 50,54.5C 63.0576,36.9571 59.8909,22.7904 40.5,12C 31.6576,9.5739 22.6576,8.90724 13.5,10C 7.35351,12.2129 2.68685,16.0463 -0.5,21.5C -0.5,14.1667 -0.5,6.83333 -0.5,-0.5 Z"/></g>
<g><path style="opacity:1" fill="#0c0c0c" d="M 390.5,229.5 C 390.369,230.376 390.702,231.043 391.5,231.5C 392.822,222.008 392.822,212.675 391.5,203.5C 391.009,168.333 393.176,133.333 398,98.5C 400.999,79.1749 403.999,59.8415 407,40.5C 413.704,23.6102 425.871,13.6102 443.5,10.5C 459.707,11.5816 465.54,19.9149 461,35.5C 457.09,42.5872 451.59,44.2539 444.5,40.5C 443.529,35.2025 443.529,29.8692 444.5,24.5C 442.61,24.2965 441.11,24.9632 440,26.5C 438.25,29.2464 437.25,32.2464 437,35.5C 434.159,91.7982 432.993,148.132 433.5,204.5C 433.5,209.167 433.5,213.833 433.5,218.5C 433.5,220.833 433.5,223.167 433.5,225.5C 432.17,256.003 432.17,286.669 433.5,317.5C 434.466,315.604 434.799,313.604 434.5,311.5C 435.034,291.3 440.534,272.634 451,255.5C 454.185,251.459 458.019,248.459 462.5,246.5C 461.082,257.773 460.248,269.106 460,280.5C 459.206,283.471 458.539,286.471 458,289.5C 452.415,298.335 447.081,307.335 442,316.5C 436.475,329.626 433.975,343.293 434.5,357.5C 434.989,373.167 435.489,388.834 436,404.5C 436.398,384.945 443.565,368.445 457.5,355C 459.025,353.991 460.692,353.491 462.5,353.5C 461.967,366.886 460.801,380.219 459,393.5C 458.439,395.725 457.439,397.725 456,399.5C 452.19,403.4 448.19,407.066 444,410.5C 439.486,419.604 437.319,429.271 437.5,439.5C 443.812,452.376 439.812,460.209 425.5,463C 428.423,465.045 431.257,467.212 434,469.5C 435.71,472.423 435.877,475.423 434.5,478.5C 436.029,479.763 437.695,480.763 439.5,481.5C 438.694,482.728 437.694,483.728 436.5,484.5C 431.504,483.375 426.504,483.542 421.5,485C 420.723,490.415 423.056,494.081 428.5,496C 432.821,496.499 437.154,496.666 441.5,496.5C 441.717,493.579 441.051,490.913 439.5,488.5C 439.897,487.475 440.563,487.308 441.5,488C 443.364,490.688 445.364,493.188 447.5,495.5C 447.863,497.911 446.863,499.411 444.5,500C 437.782,500.795 431.116,500.628 424.5,499.5C 411.995,506.209 400.829,504.543 391,494.5C 390.503,496.81 390.337,499.143 390.5,501.5C 383.95,503.299 377.283,503.799 370.5,503C 365.064,500.535 359.897,497.701 355,494.5C 344.542,497.447 334.208,497.113 324,493.5C 323.5,493.667 323,493.833 322.5,494C 323.357,494.689 324.023,495.522 324.5,496.5C 311.224,499.213 298.724,497.213 287,490.5C 288.113,492.494 289.613,494.494 291.5,496.5C 271.516,504.311 252.183,502.977 233.5,492.5C 233.842,491.662 234.508,491.328 235.5,491.5C 251.401,499.161 267.734,500.327 284.5,495C 275.79,487.288 266.79,479.955 257.5,473C 250.467,469.741 243.134,467.408 235.5,466C 218.043,464.247 200.543,463.414 183,463.5C 155.187,465.09 127.354,466.423 99.5,467.5C 107.518,482.191 119.852,491.025 136.5,494C 143.167,494.667 149.833,494.667 156.5,494C 148.474,488.321 140.141,483.155 131.5,478.5C 136.975,477.511 142.642,477.178 148.5,477.5C 148.167,478.167 147.833,478.833 147.5,479.5C 145.801,479.34 144.134,479.506 142.5,480C 149.307,484.64 155.973,489.473 162.5,494.5C 136.561,500.465 114.728,493.465 97,473.5C 94.5965,469.365 92.7632,465.032 91.5,460.5C 93.1667,460.5 94.8333,460.5 96.5,460.5C 96.3389,457.472 97.0056,454.639 98.5,452C 96.3178,449.65 93.9845,447.484 91.5,445.5C 84.3866,434.656 80.5533,422.656 80,409.5C 79.0283,405.768 78.5283,406.101 78.5,410.5C 78.7458,421.572 81.5791,431.905 87,441.5C 88.0491,443.618 89.5491,445.284 91.5,446.5C 92.2899,447.794 93.2899,448.961 94.5,450C 79.0911,453.547 67.9244,448.047 61,433.5C 58.265,425.991 56.0984,418.324 54.5,410.5C 54.719,409.325 54.3857,408.325 53.5,407.5C 52.5059,412.456 52.1725,417.456 52.5,422.5C 54.7672,437.973 50.1006,450.806 38.5,461C 34.2663,463.912 29.5996,465.745 24.5,466.5C 22.2646,466.795 20.2646,466.461 18.5,465.5C 25.5035,455.667 29.6702,444.667 31,432.5C 31.5,396.502 31.6667,360.502 31.5,324.5C 32.4889,319.025 32.8222,313.358 32.5,307.5C 46.8333,307.5 61.1667,307.5 75.5,307.5C 75.1731,317.015 75.5064,326.348 76.5,335.5C 76.3066,352.849 76.6399,370.182 77.5,387.5C 87.8181,386.905 98.1514,386.238 108.5,385.5C 92.8282,340.874 91.6616,295.874 105,250.5C 111.188,232.802 117.354,215.135 123.5,197.5C 121.5,197.5 119.5,197.5 117.5,197.5C 119.965,185.237 125.131,174.237 133,164.5C 137.93,158.447 143.43,152.947 149.5,148C 158.582,142.042 167.749,136.208 177,130.5C 174.746,111.681 182.246,98.6809 199.5,91.5C 200.652,88.8938 200.818,86.2272 200,83.5C 197.722,70.5683 195.222,57.735 192.5,45C 193.016,35.3019 197.016,27.3019 204.5,21C 227.593,4.70248 252.26,2.03581 278.5,13C 289.749,18.5819 297.916,27.0819 303,38.5C 303.61,43.8512 303.443,49.1845 302.5,54.5C 308.166,66.6949 307.666,78.6949 301,90.5C 297.942,94.0617 294.442,97.0617 290.5,99.5C 289.319,101.198 289.319,102.865 290.5,104.5C 300.195,107.252 308.028,112.585 314,120.5C 315.016,124.921 316.349,129.255 318,133.5C 342.942,146.604 361.109,165.938 372.5,191.5C 370.712,191.215 369.045,191.548 367.5,192.5C 375.94,204.386 383.607,216.719 390.5,229.5 Z"/></g>
<g><path style="opacity:1" fill="#060606" d="M 59.5,76.5 C 59.3336,84.84 59.5003,93.1733 60,101.5C 60.5133,100.473 61.0133,99.4734 61.5,98.5C 62.6609,93.187 63.8276,87.8537 65,82.5C 65.6667,76.8333 65.6667,71.1667 65,65.5C 62.9435,61.7771 59.9435,59.1104 56,57.5C 56.2671,53.2921 57.9338,49.6254 61,46.5C 66.7808,40.335 72.7808,40.0017 79,45.5C 80.1207,42.009 79.2873,39.1756 76.5,37C 88.2026,14.6514 106.536,5.98472 131.5,11C 145.275,17.0512 151.441,27.5512 150,42.5C 144.862,56.9845 134.696,63.1512 119.5,61C 108.055,55.9712 103.888,47.4712 107,35.5C 112.921,26.6971 120.421,25.1971 129.5,31C 130.602,33.4009 130.769,35.9009 130,38.5C 129.439,39.0219 128.772,39.3552 128,39.5C 125.733,37.7421 123.233,37.2421 120.5,38C 118.987,40.9156 119.32,43.5823 121.5,46C 127.169,48.5244 132.002,47.3577 136,42.5C 140.301,34.4306 138.801,27.5972 131.5,22C 117.817,16.3809 106.317,19.2142 97,30.5C 86.2346,47.2111 80.2346,65.5445 79,85.5C 77.0058,117.131 76.0058,148.798 76,180.5C 60.9114,181.491 45.7448,181.824 30.5,181.5C 30.6666,158.498 30.5,135.498 30,112.5C 29.5584,92.792 25.7251,73.792 18.5,55.5C 18.7093,54.914 19.0426,54.414 19.5,54C 26.4504,53.9784 32.2838,51.4784 37,46.5C 44.0485,30.9288 39.2151,21.5955 22.5,18.5C 16.0572,18.1974 12.0572,21.0308 10.5,27C 11.0204,32.5829 13.5204,33.7495 18,30.5C 20.229,25.5293 23.229,25.1959 27,29.5C 28.3229,36.3552 25.8229,41.1885 19.5,44C 9.805,46.7376 3.13833,43.5709 -0.5,34.5C -0.5,30.1667 -0.5,25.8333 -0.5,21.5C 2.68685,16.0463 7.35351,12.2129 13.5,10C 22.6576,8.90724 31.6576,9.5739 40.5,12C 59.8909,22.7904 63.0576,36.9571 50,54.5C 49.3333,57.1667 49.3333,59.8333 50,62.5C 54.9088,65.9842 58.0755,70.6509 59.5,76.5 Z"/></g>
<g><path style="opacity:1" fill="#f4f4f4" d="M 280.5,33.5 C 279.791,32.596 278.791,32.2627 277.5,32.5C 277.5,37.1667 277.5,41.8333 277.5,46.5C 276.5,46.5 275.5,46.5 274.5,46.5C 273.513,41.6946 273.179,36.6946 273.5,31.5C 272.081,30.5489 270.415,30.2155 268.5,30.5C 268.5,35.1667 268.5,39.8333 268.5,44.5C 267.5,44.5 266.5,44.5 265.5,44.5C 264.275,39.7105 263.608,34.7105 263.5,29.5C 262.167,29.5 260.833,29.5 259.5,29.5C 259.5,34.1667 259.5,38.8333 259.5,43.5C 258.167,43.5 256.833,43.5 255.5,43.5C 255.819,38.6367 255.486,33.97 254.5,29.5C 252.833,29.5 251.167,29.5 249.5,29.5C 249.5,34.1667 249.5,38.8333 249.5,43.5C 248.167,43.5 246.833,43.5 245.5,43.5C 245.819,38.6367 245.486,33.97 244.5,29.5C 242.833,29.5 241.167,29.5 239.5,29.5C 239.5,34.1667 239.5,38.8333 239.5,43.5C 238.167,43.5 236.833,43.5 235.5,43.5C 235.5,39.1667 235.5,34.8333 235.5,30.5C 234.081,29.5489 232.415,29.2155 230.5,29.5C 230.5,32.5 230.5,35.5 230.5,38.5C 230.5,40.8333 230.5,43.1667 230.5,45.5C 228.833,45.5 227.167,45.5 225.5,45.5C 225.5,41.1667 225.5,36.8333 225.5,32.5C 223.833,32.5 222.167,32.5 220.5,32.5C 220.5,37.5 220.5,42.5 220.5,47.5C 219.167,47.5 217.833,47.5 216.5,47.5C 216.826,43.1161 216.492,38.7828 215.5,34.5C 214.833,34.8333 214.167,35.1667 213.5,35.5C 212.833,40.1667 212.167,44.8333 211.5,49.5C 210.264,50.2458 208.93,50.5792 207.5,50.5C 207.5,48.8333 207.5,47.1667 207.5,45.5C 207.808,43.076 207.474,40.7427 206.5,38.5C 205.893,38.6236 205.56,38.9569 205.5,39.5C 204.351,39.7911 203.684,40.6244 203.5,42C 204.286,45.4582 204.62,48.9582 204.5,52.5C 203.178,52.33 202.011,52.6634 201,53.5C 199.439,42.1179 203.272,32.9512 212.5,26C 235.632,11.0109 258.966,10.6775 282.5,25C 291.828,31.8104 295.828,40.977 294.5,52.5C 293.5,52.5 292.5,52.5 291.5,52.5C 291.666,47.8215 291.499,43.1548 291,38.5C 289.989,37.6634 288.822,37.33 287.5,37.5C 287.5,41.5 287.5,45.5 287.5,49.5C 285.833,49.5 284.167,49.5 282.5,49.5C 283.113,43.7291 282.446,38.3958 280.5,33.5 Z"/></g>
<g><path style="opacity:1" fill="#828382" d="M 244.5,29.5 C 245.486,33.97 245.819,38.6367 245.5,43.5C 246.833,43.5 248.167,43.5 249.5,43.5C 248.081,44.4511 246.415,44.7845 244.5,44.5C 244.5,39.5 244.5,34.5 244.5,29.5 Z"/></g>
<g><path style="opacity:1" fill="#484949" d="M 273.5,31.5 C 272.167,31.5 270.833,31.5 269.5,31.5C 269.5,36.1667 269.5,40.8333 269.5,45.5C 267.901,45.7678 266.568,45.4345 265.5,44.5C 266.5,44.5 267.5,44.5 268.5,44.5C 268.5,39.8333 268.5,35.1667 268.5,30.5C 270.415,30.2155 272.081,30.5489 273.5,31.5 Z"/></g>
<g><path style="opacity:1" fill="#525252" d="M 235.5,30.5 C 234.167,30.5 232.833,30.5 231.5,30.5C 231.806,33.3854 231.473,36.0521 230.5,38.5C 230.5,35.5 230.5,32.5 230.5,29.5C 232.415,29.2155 234.081,29.5489 235.5,30.5 Z"/></g>
<g><path style="opacity:1" fill="#919091" d="M 254.5,29.5 C 255.486,33.97 255.819,38.6367 255.5,43.5C 256.833,43.5 258.167,43.5 259.5,43.5C 258.081,44.4511 256.415,44.7845 254.5,44.5C 254.5,39.5 254.5,34.5 254.5,29.5 Z"/></g>
<g><path style="opacity:1" fill="#010101" d="M 370.5,140.5 C 366.366,139.515 362.032,139.182 357.5,139.5C 357.5,111.5 357.5,83.5 357.5,55.5C 358.57,48.5813 362.236,43.4147 368.5,40C 378.129,38.0643 384.962,41.5643 389,50.5C 389.667,80.1667 389.667,109.833 389,139.5C 382.924,140.476 376.758,140.81 370.5,140.5 Z"/></g>
<g><path style="opacity:1" fill="#5a595a" d="M 205.5,39.5 C 205.56,38.9569 205.893,38.6236 206.5,38.5C 207.474,40.7427 207.808,43.076 207.5,45.5C 206.833,43.5 206.167,41.5 205.5,39.5 Z"/></g>
<g><path style="opacity:1" fill="#939394" d="M 280.5,33.5 C 278.564,37.7147 277.897,42.3814 278.5,47.5C 276.901,47.7678 275.568,47.4345 274.5,46.5C 275.5,46.5 276.5,46.5 277.5,46.5C 277.5,41.8333 277.5,37.1667 277.5,32.5C 278.791,32.2627 279.791,32.596 280.5,33.5 Z"/></g>
<g><path style="opacity:1" fill="#f7f7f7" d="M 229.5,48.5 C 247.53,47.2281 265.197,49.0615 282.5,54C 283.931,54.4652 285.097,55.2986 286,56.5C 286.176,59.8818 286.676,63.2152 287.5,66.5C 289.465,62.6545 292.465,60.8212 296.5,61C 298.049,62.214 299.215,63.714 300,65.5C 302.35,75.7745 299.85,84.6078 292.5,92C 290.323,93.2022 287.989,93.7022 285.5,93.5C 285.719,92.325 285.386,91.325 284.5,90.5C 283.435,94.7837 282.602,99.1171 282,103.5C 281.667,112.833 281.333,122.167 281,131.5C 280.215,133.286 279.049,134.786 277.5,136C 272.003,138.245 267.003,141.245 262.5,145C 260.833,145.667 259.167,145.667 257.5,145C 254.5,143.167 251.5,141.333 248.5,139.5C 257.248,135.598 265.081,130.265 272,123.5C 273.241,122.123 273.408,120.79 272.5,119.5C 266.292,124.53 259.292,128.03 251.5,130C 237.596,132.796 226.763,128.296 219,116.5C 215.119,109.405 211.785,102.071 209,94.5C 207.422,82.7789 204.922,71.2789 201.5,60C 201.645,59.228 201.978,58.5613 202.5,58C 211.297,53.9032 220.297,50.7365 229.5,48.5 Z"/></g>
<g><path style="opacity:1" fill="#0e0f0f" d="M 250.5,55.5 C 255.844,55.334 261.177,55.5006 266.5,56C 270.785,57.4475 273.452,60.2808 274.5,64.5C 271.575,64.5402 268.909,63.7068 266.5,62C 256.978,60.0055 249.311,62.8388 243.5,70.5C 242.364,67.0926 241.031,63.7593 239.5,60.5C 242.994,58.2342 246.66,56.5675 250.5,55.5 Z"/></g>
<g><path style="opacity:1" fill="#0f1010" d="M 219.5,68.5 C 222.252,68.578 224.918,68.7446 227.5,69C 225.431,67.4766 223.097,66.6432 220.5,66.5C 216.993,66.3067 213.66,66.9733 210.5,68.5C 209.132,63.0077 211.466,60.1743 217.5,60C 222.202,59.1717 226.869,59.3384 231.5,60.5C 233.05,64.309 233.716,68.309 233.5,72.5C 233.074,79.5518 232.574,86.5518 232,93.5C 235.539,95.1377 238.706,94.6377 241.5,92C 243.577,91.8078 245.577,91.3078 247.5,90.5C 246.5,89.1667 245.5,87.8333 244.5,86.5C 245.365,85.4173 246.365,85.2506 247.5,86C 254.198,89.5821 257.698,95.0821 258,102.5C 255.325,98.9947 252.491,95.6614 249.5,92.5C 243.193,99.8689 235.859,101.202 227.5,96.5C 226.004,99.4911 224.504,102.491 223,105.5C 222.784,97.7974 224.451,90.4641 228,83.5C 228.821,80.4459 228.655,77.4459 227.5,74.5C 225.157,75.9226 222.657,76.9226 220,77.5C 217.58,75.6021 214.746,74.6021 211.5,74.5C 212.224,70.1198 214.89,68.1198 219.5,68.5 Z"/></g>
<g><path style="opacity:1" fill="#131313" d="M 254.5,64.5 C 259.081,63.9231 263.248,64.9231 267,67.5C 267.483,68.448 267.649,69.448 267.5,70.5C 265.5,70.1667 263.5,69.8333 261.5,69.5C 261.436,73.729 259.27,75.729 255,75.5C 251.241,75.907 249.741,74.2403 250.5,70.5C 248.645,70.728 247.812,70.0613 248,68.5C 250.314,67.2668 252.481,65.9334 254.5,64.5 Z"/></g>
<g><path style="opacity:1" fill="#737373" d="M 220.5,66.5 C 223.097,66.6432 225.431,67.4766 227.5,69C 224.918,68.7446 222.252,68.578 219.5,68.5C 219.833,67.8333 220.167,67.1667 220.5,66.5 Z"/></g>
<g><path style="opacity:1" fill="#222223" d="M 357.5,55.5 C 357.5,83.5 357.5,111.5 357.5,139.5C 362.032,139.182 366.366,139.515 370.5,140.5C 365.833,140.5 361.167,140.5 356.5,140.5C 356.169,111.995 356.502,83.6618 357.5,55.5 Z"/></g>
<g><path style="opacity:1" fill="#030303" d="M 136.5,119.5 C 136.5,129.167 136.5,138.833 136.5,148.5C 124.833,148.5 113.167,148.5 101.5,148.5C 101.333,128.497 101.5,108.497 102,88.5C 102.094,77.7528 107.26,71.2528 117.5,69C 123.68,67.9778 129.68,68.4778 135.5,70.5C 136.499,86.8197 136.833,103.153 136.5,119.5 Z"/></g>
<g><path style="opacity:1" fill="#141414" d="M 292.5,68.5 C 293.75,68.5774 294.583,69.244 295,70.5C 295.823,74.7384 295.156,78.7384 293,82.5C 291.192,84.8432 289.026,85.5099 286.5,84.5C 288.876,80.5493 290.043,76.216 290,71.5C 291.045,70.6266 291.878,69.6266 292.5,68.5 Z"/></g>
<g><path style="opacity:1" fill="#f8f8f8" d="M 426.5,76.5 C 427.493,85.3178 427.827,94.3178 427.5,103.5C 427.291,104.922 426.791,106.255 426,107.5C 414.555,117.783 406.055,130.116 400.5,144.5C 399.513,139.695 399.179,134.695 399.5,129.5C 401.363,108.106 410.363,90.4389 426.5,76.5 Z"/></g>
<g><path style="opacity:1" fill="#373738" d="M 59.5,76.5 C 60.1667,83.8333 60.8333,91.1667 61.5,98.5C 61.0133,99.4734 60.5133,100.473 60,101.5C 59.5003,93.1733 59.3336,84.84 59.5,76.5 Z"/></g>
<g><path style="opacity:1" fill="#959595" d="M 426.5,76.5 C 426.56,75.9569 426.893,75.6236 427.5,75.5C 428.822,84.9918 428.822,94.3251 427.5,103.5C 427.827,94.3178 427.493,85.3178 426.5,76.5 Z"/></g>
<g><path style="opacity:1" fill="#fbfbfb" d="M 201.5,97.5 C 203.308,98.9179 203.975,100.918 203.5,103.5C 197.258,105.622 195.091,109.956 197,116.5C 199.797,120.299 202.964,123.799 206.5,127C 221.729,135.782 237.396,143.782 253.5,151C 257.982,153.054 261.316,156.221 263.5,160.5C 263.5,162.167 263.5,163.833 263.5,165.5C 260.167,165.5 256.833,165.5 253.5,165.5C 251.5,165.5 249.5,165.5 247.5,165.5C 246.705,169.785 246.372,174.119 246.5,178.5C 245.596,179.209 245.263,180.209 245.5,181.5C 215.995,181.169 186.662,181.502 157.5,182.5C 146.582,184.139 135.915,186.805 125.5,190.5C 126.82,185.522 128.987,180.855 132,176.5C 141.242,165.256 151.742,155.423 163.5,147C 169.046,144.06 174.713,141.394 180.5,139C 182.167,138.333 183.833,138.333 185.5,139C 206.81,152.997 230.143,160.663 255.5,162C 241.554,156.701 227.554,151.367 213.5,146C 204.02,142.067 194.853,137.567 186,132.5C 180.494,115.786 185.661,104.119 201.5,97.5 Z"/></g>
<g><path style="opacity:1" fill="#949494" d="M 201.5,97.5 C 202.209,96.596 203.209,96.2627 204.5,96.5C 204.802,99.0593 204.468,101.393 203.5,103.5C 203.975,100.918 203.308,98.9179 201.5,97.5 Z"/></g>
<g><path style="opacity:1" fill="#111111" d="M 236.5,102.5 C 242.402,101.962 248.068,102.795 253.5,105C 254.337,106.011 254.67,107.178 254.5,108.5C 245.014,107.184 235.681,107.851 226.5,110.5C 226.081,107.675 227.081,105.509 229.5,104C 232.036,103.814 234.369,103.314 236.5,102.5 Z"/></g>
<g><path style="opacity:1" fill="#f7f7f7" d="M 288.5,110.5 C 296.079,112.243 302.579,115.91 308,121.5C 311.066,129.638 309.232,136.472 302.5,142C 294.911,147.962 286.578,152.629 277.5,156C 274.773,156.818 272.106,156.652 269.5,155.5C 268.48,153.568 268.313,151.568 269,149.5C 278.006,141.991 286.84,134.324 295.5,126.5C 293.47,124.393 291.303,122.393 289,120.5C 288.502,117.183 288.335,113.85 288.5,110.5 Z"/></g>
<g><path style="opacity:1" fill="#a1a1a1" d="M 243.5,113.5 C 239.029,112.911 235.029,113.577 231.5,115.5C 230.596,114.791 230.263,113.791 230.5,112.5C 235.032,112.182 239.366,112.515 243.5,113.5 Z"/></g>
<g><path style="opacity:1" fill="#151515" d="M 243.5,113.5 C 245.103,113.312 246.437,113.812 247.5,115C 242.734,117.31 237.734,117.977 232.5,117C 231.944,116.617 231.611,116.117 231.5,115.5C 235.029,113.577 239.029,112.911 243.5,113.5 Z"/></g>
<g><path style="opacity:1" fill="#fbfbfb" d="M 424.5,117.5 C 425.486,121.97 425.819,126.637 425.5,131.5C 424.765,147.15 424.265,162.816 424,178.5C 419.054,183.446 414.054,188.446 409,193.5C 404.686,200.46 401.186,207.793 398.5,215.5C 397.504,201.343 397.171,187.01 397.5,172.5C 400.394,151.047 409.394,132.714 424.5,117.5 Z"/></g>
<g><path style="opacity:1" fill="#484848" d="M 424.5,117.5 C 424.56,116.957 424.893,116.624 425.5,116.5C 426.814,121.652 426.814,126.652 425.5,131.5C 425.819,126.637 425.486,121.97 424.5,117.5 Z"/></g>
<g><path style="opacity:1" fill="#4e4d4d" d="M 399.5,129.5 C 399.179,134.695 399.513,139.695 400.5,144.5C 400.44,145.043 400.107,145.376 399.5,145.5C 398.185,140.014 398.185,134.68 399.5,129.5 Z"/></g>
<g><path style="opacity:1" fill="#f7f7f7" d="M 361.5,184.5 C 359.735,185.461 357.735,185.795 355.5,185.5C 351.833,185.5 348.167,185.5 344.5,185.5C 344.5,180.833 344.5,176.167 344.5,171.5C 319.837,169.833 295.17,168.167 270.5,166.5C 270.5,164.833 270.5,163.167 270.5,161.5C 287.801,159.684 302.135,152.351 313.5,139.5C 333.375,150.376 349.375,165.376 361.5,184.5 Z"/></g>
<g><path style="opacity:1" fill="#070707" d="M 435.5,221.5 C 435.5,218.167 435.5,214.833 435.5,211.5C 431.049,186.013 438.382,164.846 457.5,148C 458.5,147.5 459.5,147 460.5,146.5C 464.29,170.613 458.79,192.279 444,211.5C 441.133,219.103 438.466,226.769 436,234.5C 435.501,230.179 435.334,225.846 435.5,221.5 Z"/></g>
<g><path style="opacity:1" fill="#626262" d="M 136.5,119.5 C 137.494,129.319 137.827,139.319 137.5,149.5C 125.322,149.828 113.322,149.495 101.5,148.5C 113.167,148.5 124.833,148.5 136.5,148.5C 136.5,138.833 136.5,129.167 136.5,119.5 Z"/></g>
<g><path style="opacity:1" fill="#686868" d="M 263.5,160.5 C 264.461,162.265 264.795,164.265 264.5,166.5C 260.629,166.815 256.962,166.482 253.5,165.5C 256.833,165.5 260.167,165.5 263.5,165.5C 263.5,163.833 263.5,162.167 263.5,160.5 Z"/></g>
<g><path style="opacity:1" fill="#e7e7e7" d="M 250.5,169.5 C 280.469,171.683 310.469,173.35 340.5,174.5C 339.608,192.535 338.275,210.535 336.5,228.5C 335.5,228.5 334.5,228.5 333.5,228.5C 334.666,211.844 335.666,195.178 336.5,178.5C 308.949,175.852 281.449,174.186 254,173.5C 250.454,216.476 247.287,259.476 244.5,302.5C 272.149,304.482 299.816,306.148 327.5,307.5C 328.227,296.17 328.894,284.837 329.5,273.5C 330.5,273.5 331.5,273.5 332.5,273.5C 332.118,286.183 331.451,298.85 330.5,311.5C 300.536,309.391 270.536,307.724 240.5,306.5C 243.911,260.848 247.244,215.181 250.5,169.5 Z"/></g>
<g><path style="opacity:1" fill="#e2e2e2" d="M 278.5,177.5 C 280.5,178.167 282.5,178.833 284.5,179.5C 282.674,180.438 280.841,181.438 279,182.5C 276.917,180.755 274.583,179.422 272,178.5C 269.849,178.643 268.182,179.643 267,181.5C 264.736,178.48 261.903,177.813 258.5,179.5C 257.614,178.675 257.281,177.675 257.5,176.5C 264.496,176.894 271.496,177.227 278.5,177.5 Z"/></g>
<g><path style="opacity:1" fill="#bdbdbc" d="M 278.5,177.5 C 293.891,178.259 309.225,179.593 324.5,181.5C 322.773,184.852 321.107,185.019 319.5,182C 316.77,181.272 314.103,181.438 311.5,182.5C 308.422,179.966 305.422,179.966 302.5,182.5C 298.646,179.617 295.146,179.95 292,183.5C 290.304,180.634 287.804,179.3 284.5,179.5C 282.5,178.833 280.5,178.167 278.5,177.5 Z"/></g>
<g><path style="opacity:1" fill="#929292" d="M 246.5,178.5 C 246.5,179.833 246.5,181.167 246.5,182.5C 216.833,182.5 187.167,182.5 157.5,182.5C 186.662,181.502 215.995,181.169 245.5,181.5C 245.263,180.209 245.596,179.209 246.5,178.5 Z"/></g>
<g><path style="opacity:1" fill="#dfdfdf" d="M 259.5,181.5 C 261.167,181.5 262.833,181.5 264.5,181.5C 264.5,182.833 264.5,184.167 264.5,185.5C 262.833,185.5 261.167,185.5 259.5,185.5C 259.5,184.167 259.5,182.833 259.5,181.5 Z"/></g>
<g><path style="opacity:1" fill="#eeeeee" d="M 270.5,181.5 C 274.161,181.35 275.161,182.85 273.5,186C 269.707,186.487 268.707,184.987 270.5,181.5 Z"/></g>
<g><path style="opacity:1" fill="#dedede" d="M 283.5,182.5 C 287.676,181.831 289.009,183.331 287.5,187C 286.207,187.49 284.873,187.657 283.5,187.5C 283.5,185.833 283.5,184.167 283.5,182.5 Z"/></g>
<g><path style="opacity:1" fill="#cbcbcb" d="M 328.5,182.5 C 329.919,181.549 331.585,181.216 333.5,181.5C 333.762,182.978 333.429,184.311 332.5,185.5C 331.148,184.476 329.815,183.476 328.5,182.5 Z"/></g>
<g><path style="opacity:1" fill="#cfcfcf" d="M 296.5,182.5 C 300.35,182.701 301.35,184.534 299.5,188C 295.537,188.118 294.537,186.284 296.5,182.5 Z"/></g>
<g><path style="opacity:1" fill="#e8e8e7" d="M 305.5,183.5 C 309.161,183.35 310.161,184.85 308.5,188C 304.707,188.487 303.707,186.987 305.5,183.5 Z"/></g>
<g><path style="opacity:1" fill="#e0e0e0" d="M 314.5,183.5 C 317.91,183.384 319.244,185.05 318.5,188.5C 316.833,188.5 315.167,188.5 313.5,188.5C 313.366,186.708 313.699,185.042 314.5,183.5 Z"/></g>
<g><path style="opacity:1" fill="#050505" d="M 14.5,185.5 C 36.2681,184.107 49.1014,194.107 53,215.5C 56.878,206.245 62.378,198.078 69.5,191C 76.703,185.384 84.3697,184.217 92.5,187.5C 81.3766,196.422 76.2099,208.089 77,222.5C 73.6979,234.92 65.5313,241.254 52.5,241.5C 41.111,241.217 33.9443,235.551 31,224.5C 29.7928,217.464 28.4595,210.464 27,203.5C 22.9776,197.326 18.8109,191.326 14.5,185.5 Z"/></g>
<g><path style="opacity:1" fill="#d6d6d6" d="M 324.5,184.5 C 325.833,184.5 327.167,184.5 328.5,184.5C 328.5,186.167 328.5,187.833 328.5,189.5C 324.065,190.078 322.732,188.411 324.5,184.5 Z"/></g>
<g><path style="opacity:1" fill="#5b5b5b" d="M 361.5,184.5 C 362.043,184.56 362.376,184.893 362.5,185.5C 360.027,186.797 357.693,186.797 355.5,185.5C 357.735,185.795 359.735,185.461 361.5,184.5 Z"/></g>
<g><path style="opacity:1" fill="#fbfbfb" d="M 225.5,265.5 C 225.631,264.624 225.298,263.957 224.5,263.5C 223.513,266.768 223.18,270.102 223.5,273.5C 223.5,278.167 223.5,282.833 223.5,287.5C 222.532,289.607 222.198,291.941 222.5,294.5C 219.833,294.5 217.167,294.5 214.5,294.5C 210.605,266.736 206.105,239.069 201,211.5C 200.333,219.833 200.333,228.167 201,236.5C 202.708,254.586 204.875,272.586 207.5,290.5C 207.5,291.833 207.5,293.167 207.5,294.5C 200.833,294.5 194.167,294.5 187.5,294.5C 186.883,294.389 186.383,294.056 186,293.5C 184.666,286.152 183.332,278.819 182,271.5C 181.788,261.144 182.288,250.81 183.5,240.5C 183.333,237.167 183.167,233.833 183,230.5C 182.784,228.616 182.117,226.949 181,225.5C 179.441,233.857 177.774,242.19 176,250.5C 173.908,247.319 171.575,244.319 169,241.5C 170.629,258.417 170.796,275.417 169.5,292.5C 162.037,289.96 154.37,288.127 146.5,287C 135.286,284.854 124.953,286.854 115.5,293C 111.971,295.913 110.305,299.413 110.5,303.5C 123.671,293.934 138.338,290.767 154.5,294C 163.213,295.046 168.379,299.879 170,308.5C 172.661,317.151 175.328,325.818 178,334.5C 179.108,338.086 179.608,341.753 179.5,345.5C 157.223,334.863 138.056,338.863 122,357.5C 118.402,364.461 115.902,371.795 114.5,379.5C 113.833,380.833 113.167,380.833 112.5,379.5C 111.667,377.833 110.833,376.167 110,374.5C 107.667,362.833 105.333,351.167 103,339.5C 99.1516,311.59 101.485,284.257 110,257.5C 117.186,235.605 125.353,214.105 134.5,193C 139.385,191.289 144.385,189.955 149.5,189C 181.498,188.5 213.498,188.333 245.5,188.5C 242.447,224.138 239.78,259.805 237.5,295.5C 234.833,295.5 232.167,295.5 229.5,295.5C 228.447,285.464 227.114,275.464 225.5,265.5 Z"/></g>
<g><path style="opacity:1" fill="#f6f6f6" d="M 418.5,187.5 C 420.167,187.5 421.833,187.5 423.5,187.5C 423.934,206.503 424.1,225.503 424,244.5C 411.468,255.87 402.135,269.537 396,285.5C 396.221,271.525 396.555,257.525 397,243.5C 400.261,226.972 405.261,210.972 412,195.5C 413.479,192.172 415.645,189.506 418.5,187.5 Z"/></g>
<g><path style="opacity:1" fill="#ededed" d="M 332.5,194.5 C 331.566,195.568 331.232,196.901 331.5,198.5C 330.167,198.5 328.833,198.5 327.5,198.5C 324.187,193.181 320.687,193.181 317,198.5C 316.135,195.797 314.301,194.464 311.5,194.5C 309.012,195.149 306.678,196.149 304.5,197.5C 302.129,195.972 299.629,194.639 297,193.5C 294.695,193.484 293.028,194.484 292,196.5C 288.952,192.99 285.619,192.657 282,195.5C 278.985,191.76 275.818,191.594 272.5,195C 267.177,195.499 261.844,195.666 256.5,195.5C 256.5,193.167 256.5,190.833 256.5,188.5C 263.715,188.943 270.882,188.943 278,188.5C 280.755,188.41 283.255,189.076 285.5,190.5C 287.5,189.833 289.5,189.167 291.5,188.5C 294.789,190.629 298.289,190.962 302,189.5C 304.98,192.158 307.98,192.158 311,189.5C 314.13,192.122 317.297,192.122 320.5,189.5C 321.992,191.166 323.825,192.166 326,192.5C 328.086,191.582 330.253,190.915 332.5,190.5C 332.5,191.833 332.5,193.167 332.5,194.5 Z"/></g>
<g><path style="opacity:1" fill="#f9f9f8" d="M 355.5,245.5 C 355.5,243.5 355.5,241.5 355.5,239.5C 358.5,239.5 361.5,239.5 364.5,239.5C 369.577,240.47 374.41,242.137 379,244.5C 377.712,240.861 375.212,238.028 371.5,236C 363.72,233.377 355.72,232.044 347.5,232C 347,231.5 346.5,231 346,230.5C 345.139,223.114 343.973,215.781 342.5,208.5C 343.165,202.516 343.499,196.516 343.5,190.5C 349.526,189.676 354.693,191.342 359,195.5C 367.054,205.888 374.721,216.554 382,227.5C 384.883,232.599 387.217,237.933 389,243.5C 390.129,256.447 390.629,269.447 390.5,282.5C 390.357,299.174 390.024,315.84 389.5,332.5C 380.028,334.626 370.528,334.959 361,333.5C 360.692,304.044 358.858,274.711 355.5,245.5 Z"/></g>
<g><path style="opacity:1" fill="#e4e4e4" d="M 275.5,195.5 C 279.161,195.35 280.161,196.85 278.5,200C 274.707,200.487 273.707,198.987 275.5,195.5 Z"/></g>
<g><path style="opacity:1" fill="#dcdcdc" d="M 285.5,195.5 C 288.487,195.948 289.487,197.448 288.5,200C 283.522,200.864 282.522,199.364 285.5,195.5 Z"/></g>
<g><path style="opacity:1" fill="#dfdfdf" d="M 294.5,196.5 C 298.138,195.737 299.638,197.07 299,200.5C 295.331,202.009 293.831,200.676 294.5,196.5 Z"/></g>
<g><path style="opacity:1" fill="#9c9b9c" d="M 397.5,172.5 C 397.171,187.01 397.504,201.343 398.5,215.5C 398.631,216.376 398.298,217.043 397.5,217.5C 396.174,202.339 396.174,187.339 397.5,172.5 Z"/></g>
<g><path style="opacity:1" fill="#dfdfdf" d="M 310.5,196.5 C 313.084,197.048 314.084,198.715 313.5,201.5C 308.516,201.856 307.516,200.189 310.5,196.5 Z"/></g>
<g><path style="opacity:1" fill="#e7e7e6" d="M 321.5,197.5 C 325.161,197.35 326.161,198.85 324.5,202C 320.707,202.487 319.707,200.987 321.5,197.5 Z"/></g>
<g><path style="opacity:1" fill="#898989" d="M 332.5,194.5 C 332.5,196.167 332.5,197.833 332.5,199.5C 330.585,199.784 328.919,199.451 327.5,198.5C 328.833,198.5 330.167,198.5 331.5,198.5C 331.232,196.901 331.566,195.568 332.5,194.5 Z"/></g>
<g><path style="opacity:1" fill="#ededed" d="M 255.5,198.5 C 260.844,198.334 266.177,198.501 271.5,199C 273.841,203.835 277.174,204.668 281.5,201.5C 284.833,204.167 288.167,204.167 291.5,201.5C 292.852,202.896 294.519,203.563 296.5,203.5C 299.098,202.733 301.598,201.733 304,200.5C 306.083,202.245 308.417,203.578 311,204.5C 313.333,204.417 315.166,203.417 316.5,201.5C 318.253,203.261 320.253,204.594 322.5,205.5C 325.356,203.956 328.356,202.956 331.5,202.5C 331.808,204.924 331.474,207.257 330.5,209.5C 327.679,208.2 325.012,208.533 322.5,210.5C 319.925,208.287 317.092,207.954 314,209.5C 311.02,206.842 308.02,206.842 305,209.5C 302.847,207.556 300.347,207.056 297.5,208C 294.986,210.376 291.986,211.043 288.5,210C 287.403,207.7 285.569,206.533 283,206.5C 280.444,208.207 277.611,209.207 274.5,209.5C 271.505,208.507 268.671,207.174 266,205.5C 263.837,205.495 262.337,206.495 261.5,208.5C 259.604,209.466 257.604,209.799 255.5,209.5C 255.5,205.833 255.5,202.167 255.5,198.5 Z"/></g>
<g><path style="opacity:1" fill="#393939" d="M 391.5,203.5 C 392.822,212.675 392.822,222.008 391.5,231.5C 390.702,231.043 390.369,230.376 390.5,229.5C 391.493,221.016 391.826,212.349 391.5,203.5 Z"/></g>
<g><path style="opacity:1" fill="#dadad9" d="M 263.5,208.5 C 267.138,207.737 268.638,209.07 268,212.5C 264.331,214.009 262.831,212.676 263.5,208.5 Z"/></g>
<g><path style="opacity:1" fill="#e2e2e1" d="M 281.5,209.5 C 282.833,209.5 284.167,209.5 285.5,209.5C 285.465,215.024 283.799,215.691 280.5,211.5C 280.863,210.817 281.196,210.15 281.5,209.5 Z"/></g>
<g><path style="opacity:1" fill="#e7e7e6" d="M 298.5,210.5 C 299.833,210.5 301.167,210.5 302.5,210.5C 302.5,211.833 302.5,213.167 302.5,214.5C 298.56,215.234 297.227,213.901 298.5,210.5 Z"/></g>
<g><path style="opacity:1" fill="#e2e2e2" d="M 307.5,210.5 C 310.5,210.167 311.833,211.5 311.5,214.5C 309.833,214.5 308.167,214.5 306.5,214.5C 306.433,213.041 306.766,211.708 307.5,210.5 Z"/></g>
<g><path style="opacity:1" fill="#d1d1d1" d="M 316.5,210.5 C 320.35,210.701 321.35,212.534 319.5,216C 315.537,216.118 314.537,214.284 316.5,210.5 Z"/></g>
<g><path style="opacity:1" fill="#ebebeb" d="M 254.5,212.5 C 258.597,212.386 262.264,213.386 265.5,215.5C 268.32,214.027 271.32,213.027 274.5,212.5C 277.495,213.795 280.495,215.128 283.5,216.5C 285.688,216.693 287.355,215.859 288.5,214C 290.902,213.186 293.235,213.353 295.5,214.5C 292.111,217.282 288.611,219.948 285,222.5C 283.532,221.372 281.865,220.706 280,220.5C 277.371,221.639 274.871,222.972 272.5,224.5C 269.852,222.862 267.186,221.196 264.5,219.5C 261.459,221.606 258.125,222.94 254.5,223.5C 254.5,219.833 254.5,216.167 254.5,212.5 Z"/></g>
<g><path style="opacity:1" fill="#dbdbda" d="M 325.5,211.5 C 329.676,210.831 331.009,212.331 329.5,216C 328.207,216.49 326.873,216.657 325.5,216.5C 325.5,214.833 325.5,213.167 325.5,211.5 Z"/></g>
<g><path style="opacity:1" fill="#9d9d9d" d="M 433.5,204.5 C 434.167,206.833 434.833,209.167 435.5,211.5C 435.5,214.833 435.5,218.167 435.5,221.5C 434.833,220.5 434.167,219.5 433.5,218.5C 433.5,213.833 433.5,209.167 433.5,204.5 Z"/></g>
<g><path style="opacity:1" fill="#f8f8f8" d="M 350.5,254.5 C 350.5,259.167 350.5,263.833 350.5,268.5C 346.833,268.5 343.167,268.5 339.5,268.5C 328.496,266.721 317.83,263.721 307.5,259.5C 302.676,261.162 298.176,263.496 294,266.5C 292.743,266.15 292.409,265.483 293,264.5C 296.167,260.667 299.333,256.833 302.5,253C 304.577,252.808 306.577,252.308 308.5,251.5C 306.124,249.046 303.457,248.879 300.5,251C 296.695,255.478 293.028,259.978 289.5,264.5C 287.824,263.817 287.157,262.483 287.5,260.5C 291.548,250.12 298.881,243.12 309.5,239.5C 298.973,237.938 291.973,242.271 288.5,252.5C 287.311,253.429 285.978,253.762 284.5,253.5C 284.779,244.045 288.779,236.545 296.5,231C 301.032,230.951 305.366,230.118 309.5,228.5C 302.885,225.243 296.885,226.076 291.5,231C 288.5,234.667 285.5,238.333 282.5,242C 281.552,242.483 280.552,242.649 279.5,242.5C 279.606,235.787 282.273,230.287 287.5,226C 297.582,216.909 308.248,216.243 319.5,224C 325.313,229.075 331.646,233.408 338.5,237C 341.768,238.15 345.101,238.984 348.5,239.5C 349.167,244.5 349.833,249.5 350.5,254.5 Z"/></g>
<g><path style="opacity:1" fill="#d8d8d8" d="M 321.5,216.5 C 322.922,216.75 323.922,217.583 324.5,219C 326.235,219.651 327.902,219.485 329.5,218.5C 330.833,220.5 330.833,222.5 329.5,224.5C 326.833,222.833 324.167,221.167 321.5,219.5C 320.438,218.575 320.438,217.575 321.5,216.5 Z"/></g>
<g><path style="opacity:1" fill="#ececec" d="M 262.5,222.5 C 266.161,222.35 267.161,223.85 265.5,227C 261.707,227.487 260.707,225.987 262.5,222.5 Z"/></g>
<g><path style="opacity:1" fill="#dededd" d="M 278.5,223.5 C 279.978,223.238 281.311,223.571 282.5,224.5C 279.024,229.985 277.691,229.651 278.5,223.5 Z"/></g>
<g><path style="opacity:1" fill="#f8f8f8" d="M 256.5,239.5 C 255.791,238.596 254.791,238.263 253.5,238.5C 253.5,236.167 253.5,233.833 253.5,231.5C 253.5,229.833 253.5,228.167 253.5,226.5C 255.604,226.201 257.604,226.534 259.5,227.5C 262.256,231.281 265.256,231.448 268.5,228C 272.729,226.502 275.729,227.669 277.5,231.5C 275.945,233.943 275.278,236.61 275.5,239.5C 269.167,239.5 262.833,239.5 256.5,239.5 Z"/></g>
<g><path style="opacity:1" fill="#5e5d5d" d="M 253.5,231.5 C 253.5,233.833 253.5,236.167 253.5,238.5C 254.791,238.263 255.791,238.596 256.5,239.5C 255.167,239.5 253.833,239.5 252.5,239.5C 252.194,236.615 252.527,233.948 253.5,231.5 Z"/></g>
<g><path style="opacity:1" fill="#8f8f8f" d="M 364.5,239.5 C 361.5,239.5 358.5,239.5 355.5,239.5C 355.5,241.5 355.5,243.5 355.5,245.5C 354.532,243.393 354.198,241.059 354.5,238.5C 358.042,238.187 361.375,238.521 364.5,239.5 Z"/></g>
<g><path style="opacity:1" fill="#f5f5f5" d="M 253.5,250.5 C 252.539,248.735 252.205,246.735 252.5,244.5C 254.743,243.188 257.41,242.522 260.5,242.5C 265.92,242.511 271.254,243.178 276.5,244.5C 277.174,246.517 278.341,248.183 280,249.5C 280.494,251.134 280.66,252.801 280.5,254.5C 279.127,254.657 277.793,254.49 276.5,254C 273.471,249.856 270.137,249.523 266.5,253C 264.866,253.494 263.199,253.66 261.5,253.5C 260.309,248.571 257.642,247.571 253.5,250.5 Z"/></g>
<g><path style="opacity:1" fill="#050505" d="M 44.5,246.5 C 53.615,245.6 62.2817,247.1 70.5,251C 72,252.5 73.5,254 75,255.5C 76.0695,264.827 77.4029,274.16 79,283.5C 80.722,288.612 83.222,293.279 86.5,297.5C 76.9858,299.169 69.1524,296.169 63,288.5C 59.9399,283.049 57.4399,277.383 55.5,271.5C 52.4867,280.367 47.8201,288.2 41.5,295C 35.6125,299.94 28.9458,301.773 21.5,300.5C 23.9209,296.66 26.0875,292.66 28,288.5C 29.7138,277.512 31.3805,266.512 33,255.5C 36.0449,251.406 39.8782,248.406 44.5,246.5 Z"/></g>
<g><path style="opacity:1" fill="#7d7d7e" d="M 252.5,244.5 C 252.205,246.735 252.539,248.735 253.5,250.5C 253.217,251.289 252.717,251.956 252,252.5C 251.199,249.633 251.366,246.966 252.5,244.5 Z"/></g>
<g><path style="opacity:1" fill="#e7e6e6" d="M 255.5,251.5 C 259.161,251.35 260.161,252.85 258.5,256C 254.707,256.487 253.707,254.987 255.5,251.5 Z"/></g>
<g><path style="opacity:1" fill="#dbdbdb" d="M 269.5,253.5 C 270.833,253.5 272.167,253.5 273.5,253.5C 273.99,255.948 273.157,257.615 271,258.5C 268.389,257.5 267.889,255.833 269.5,253.5 Z"/></g>
<g><path style="opacity:1" fill="#ededed" d="M 251.5,256.5 C 252.974,258.137 254.808,259.137 257,259.5C 259.333,258.5 261.667,257.5 264,256.5C 266.146,258.475 268.646,259.809 271.5,260.5C 273.688,260.693 275.355,259.859 276.5,258C 278.5,257.333 280.5,257.333 282.5,258C 283.451,261.057 283.784,264.223 283.5,267.5C 281.143,267.663 278.81,267.497 276.5,267C 275.161,264.984 273.328,263.817 271,263.5C 268.835,264.751 266.501,265.751 264,266.5C 261.443,266.419 259.61,265.253 258.5,263C 256.402,262.322 254.402,262.489 252.5,263.5C 251.532,261.393 251.198,259.059 251.5,256.5 Z"/></g>
<g><path style="opacity:1" fill="#111111" d="M 370.5,257.5 C 380.617,277.585 383.117,298.585 378,320.5C 375.208,301.897 372.375,283.23 369.5,264.5C 369.198,261.941 369.532,259.607 370.5,257.5 Z"/></g>
<g><path style="opacity:1" fill="#f7f7f6" d="M 422.5,256.5 C 423.331,270.661 423.831,284.994 424,299.5C 424.5,344.832 424.667,390.165 424.5,435.5C 421.15,435.335 417.817,435.502 414.5,436C 409.977,437.852 405.977,440.518 402.5,444C 400.527,444.495 398.527,444.662 396.5,444.5C 398.252,439.315 398.752,433.981 398,428.5C 393.509,425.039 391.342,420.539 391.5,415C 392.752,408.24 393.585,401.406 394,394.5C 394.333,367.5 394.667,340.5 395,313.5C 397.76,291.316 406.927,272.316 422.5,256.5 Z"/></g>
<g><path style="opacity:1" fill="#545454" d="M 251.5,256.5 C 251.198,259.059 251.532,261.393 252.5,263.5C 252.44,264.043 252.107,264.376 251.5,264.5C 250.2,261.691 250.2,259.024 251.5,256.5 Z"/></g>
<g><path style="opacity:1" fill="#101010" d="M 163.5,271.5 C 162.791,272.404 161.791,272.737 160.5,272.5C 152.519,271.557 144.519,271.39 136.5,272C 133.716,272.892 131.05,274.058 128.5,275.5C 129.228,269.241 132.894,265.074 139.5,263C 150.007,259.222 158.007,262.055 163.5,271.5 Z"/></g>
<g><path style="opacity:1" fill="#565656" d="M 370.5,257.5 C 369.532,259.607 369.198,261.941 369.5,264.5C 368.362,261.696 368.195,258.696 369,255.5C 369.717,256.044 370.217,256.711 370.5,257.5 Z"/></g>
<g><path style="opacity:1" fill="#737373" d="M 287.5,260.5 C 287.157,262.483 287.824,263.817 289.5,264.5C 288.791,265.404 287.791,265.737 286.5,265.5C 286.216,263.585 286.549,261.919 287.5,260.5 Z"/></g>
<g><path style="opacity:1" fill="#dfdfdf" d="M 253.5,265.5 C 257.138,264.737 258.638,266.07 258,269.5C 254.331,271.009 252.831,269.676 253.5,265.5 Z"/></g>
<g><path style="opacity:1" fill="#ebebeb" d="M 269.5,266.5 C 270.833,266.5 272.167,266.5 273.5,266.5C 274.244,269.95 272.91,271.616 269.5,271.5C 269.5,269.833 269.5,268.167 269.5,266.5 Z"/></g>
<g><path style="opacity:1" fill="#e5e5e5" d="M 306.5,265.5 C 308.5,265.833 310.5,266.167 312.5,266.5C 312.5,267.5 312.5,268.5 312.5,269.5C 309.112,270.031 307.112,268.697 306.5,265.5 Z"/></g>
<g><path style="opacity:1" fill="#d9d9d9" d="M 300.5,267.5 C 304.071,267.408 305.238,269.074 304,272.5C 301.915,273.647 300.415,272.98 299.5,270.5C 300.127,269.583 300.461,268.583 300.5,267.5 Z"/></g>
<g><path style="opacity:1" fill="#989999" d="M 350.5,254.5 C 351.487,259.305 351.821,264.305 351.5,269.5C 347.298,269.817 343.298,269.483 339.5,268.5C 343.167,268.5 346.833,268.5 350.5,268.5C 350.5,263.833 350.5,259.167 350.5,254.5 Z"/></g>
<g><path style="opacity:1" fill="#e0e0e0" d="M 315.5,268.5 C 318.91,268.384 320.244,270.05 319.5,273.5C 317.833,273.5 316.167,273.5 314.5,273.5C 314.366,271.708 314.699,270.042 315.5,268.5 Z"/></g>
<g><path style="opacity:1" fill="#6e6d6d" d="M 251.5,270.5 C 250.167,272.833 250.167,275.167 251.5,277.5C 251.44,278.043 251.107,278.376 250.5,278.5C 249.167,275.5 249.167,272.5 250.5,269.5C 251.107,269.624 251.44,269.957 251.5,270.5 Z"/></g>
<g><path style="opacity:1" fill="#ededed" d="M 322.5,273.5 C 323.5,273.5 324.5,273.5 325.5,273.5C 325.5,275.167 325.5,276.833 325.5,278.5C 325.649,279.552 325.483,280.552 325,281.5C 322.504,277.998 319.671,277.665 316.5,280.5C 312.757,277.572 309.424,277.905 306.5,281.5C 302.833,276.167 299.167,276.167 295.5,281.5C 294.281,278.941 292.281,277.607 289.5,277.5C 286.73,279.294 283.564,280.294 280,280.5C 276.783,280.649 274.283,279.482 272.5,277C 268.762,275.978 265.595,276.811 263,279.5C 260.6,277.8 257.934,276.467 255,275.5C 253.301,275.387 252.134,276.053 251.5,277.5C 250.167,275.167 250.167,272.833 251.5,270.5C 252.249,272.246 253.583,273.246 255.5,273.5C 257.951,271.71 260.618,270.377 263.5,269.5C 266.148,271.138 268.814,272.804 271.5,274.5C 273.556,273.952 275.223,272.786 276.5,271C 283.542,270.67 290.542,271.17 297.5,272.5C 298.412,274.743 300.078,275.743 302.5,275.5C 304.988,274.851 307.322,273.851 309.5,272.5C 311.871,274.028 314.371,275.361 317,276.5C 319.192,276.137 321.026,275.137 322.5,273.5 Z"/></g>
<g><path style="opacity:1" fill="#7c7c7c" d="M 225.5,265.5 C 224.833,268.167 224.167,270.833 223.5,273.5C 223.18,270.102 223.513,266.768 224.5,263.5C 225.298,263.957 225.631,264.624 225.5,265.5 Z"/></g>
<g><path style="opacity:1" fill="#7a7a7a" d="M 163.5,271.5 C 164.751,272.472 164.418,273.139 162.5,273.5C 161.584,273.457 160.917,273.124 160.5,272.5C 161.791,272.737 162.791,272.404 163.5,271.5 Z"/></g>
<g><path style="opacity:1" fill="#717171" d="M 322.5,273.5 C 323.568,272.566 324.901,272.232 326.5,272.5C 326.795,274.735 326.461,276.735 325.5,278.5C 325.5,276.833 325.5,275.167 325.5,273.5C 324.5,273.5 323.5,273.5 322.5,273.5 Z"/></g>
<g><path style="opacity:1" fill="#f9f9f9" d="M 353.5,300.5 C 353.827,310.681 353.494,320.681 352.5,330.5C 348.059,325.29 344.893,319.29 343,312.5C 340.597,300.272 339.097,287.939 338.5,275.5C 343.403,275.939 348.237,276.606 353,277.5C 353.5,285.159 353.666,292.826 353.5,300.5 Z"/></g>
<g><path style="opacity:1" fill="#666666" d="M 433.5,225.5 C 433.169,254.338 433.502,283.005 434.5,311.5C 434.799,313.604 434.466,315.604 433.5,317.5C 432.17,286.669 432.17,256.003 433.5,225.5 Z"/></g>
<g><path style="opacity:1" fill="#e8e8e8" d="M 253.5,278.5 C 254.833,278.5 256.167,278.5 257.5,278.5C 258.244,281.95 256.91,283.616 253.5,283.5C 253.5,281.833 253.5,280.167 253.5,278.5 Z"/></g>
<g><path style="opacity:1" fill="#d8d8d8" d="M 268.5,278.5 C 273.197,279.874 273.531,281.874 269.5,284.5C 267.261,282.867 266.928,280.867 268.5,278.5 Z"/></g>
<g><path style="opacity:1" fill="#dedede" d="M 288.5,279.5 C 291.91,279.384 293.244,281.05 292.5,284.5C 290.833,284.5 289.167,284.5 287.5,284.5C 287.366,282.708 287.699,281.042 288.5,279.5 Z"/></g>
<g><path style="opacity:1" fill="#e5e4e5" d="M 299.5,280.5 C 303.161,280.35 304.161,281.85 302.5,285C 298.707,285.487 297.707,283.987 299.5,280.5 Z"/></g>
<g><path style="opacity:1" fill="#dededd" d="M 310.5,280.5 C 315.197,281.874 315.531,283.874 311.5,286.5C 309.261,284.867 308.928,282.867 310.5,280.5 Z"/></g>
<g><path style="opacity:1" fill="#ebebeb" d="M 319.5,281.5 C 320.5,281.5 321.5,281.5 322.5,281.5C 322.5,283.167 322.5,284.833 322.5,286.5C 321.167,286.5 319.833,286.5 318.5,286.5C 318.366,284.708 318.699,283.042 319.5,281.5 Z"/></g>
<g><path style="opacity:1" fill="#e5e5e5" d="M 249.5,282.5 C 251.045,284.372 253.045,285.372 255.5,285.5C 258.035,284.963 260.369,283.963 262.5,282.5C 264.569,282.785 265.902,283.952 266.5,286C 269.649,287.035 272.316,286.368 274.5,284C 277.833,283.333 281.167,283.333 284.5,284C 287.664,288.491 291.164,288.658 295,284.5C 298.355,289.31 302.021,289.644 306,285.5C 308.612,288.576 311.779,289.243 315.5,287.5C 318.128,289.633 320.961,289.966 324,288.5C 324.483,289.448 324.649,290.448 324.5,291.5C 322.08,291.292 319.747,291.626 317.5,292.5C 312.996,289.335 309.33,290.002 306.5,294.5C 304.26,289.443 300.927,288.443 296.5,291.5C 293.5,288.833 290.5,288.833 287.5,291.5C 284.786,288.066 281.786,287.733 278.5,290.5C 275.737,288.319 272.737,287.985 269.5,289.5C 266.005,286.632 262.838,286.965 260,290.5C 256.091,286.314 252.591,286.647 249.5,291.5C 248.679,288.554 248.679,285.554 249.5,282.5 Z"/></g>
<g><path style="opacity:1" fill="#dadada" d="M 252.5,290.5 C 254.167,290.5 255.833,290.5 257.5,290.5C 258.169,294.676 256.669,296.009 253,294.5C 252.51,293.207 252.343,291.873 252.5,290.5 Z"/></g>
<g><path style="opacity:1" fill="#ebebeb" d="M 263.5,290.5 C 267.161,290.35 268.161,291.85 266.5,295C 262.707,295.487 261.707,293.987 263.5,290.5 Z"/></g>
<g><path style="opacity:1" fill="#dddddd" d="M 271.5,291.5 C 275.138,290.737 276.638,292.07 276,295.5C 272.331,297.009 270.831,295.676 271.5,291.5 Z"/></g>
<g><path style="opacity:1" fill="#dadada" d="M 280.5,291.5 C 281.833,291.5 283.167,291.5 284.5,291.5C 284.5,293.167 284.5,294.833 284.5,296.5C 280.065,297.078 278.732,295.411 280.5,291.5 Z"/></g>
<g><path style="opacity:1" fill="#d7d7d7" d="M 289.5,292.5 C 293.138,291.737 294.638,293.07 294,296.5C 290.331,298.009 288.831,296.676 289.5,292.5 Z"/></g>
<g><path style="opacity:1" fill="#e4e5e4" d="M 299.5,292.5 C 303.161,292.35 304.161,293.85 302.5,297C 301.207,297.49 299.873,297.657 298.5,297.5C 298.366,295.708 298.699,294.042 299.5,292.5 Z"/></g>
<g><path style="opacity:1" fill="#eeeeee" d="M 310.5,293.5 C 311.833,293.5 313.167,293.5 314.5,293.5C 314.884,295.665 314.217,297.332 312.5,298.5C 310.783,297.332 310.116,295.665 310.5,293.5 Z"/></g>
<g><path style="opacity:1" fill="#848483" d="M 207.5,290.5 C 208.451,291.919 208.784,293.585 208.5,295.5C 201.313,295.825 194.313,295.491 187.5,294.5C 194.167,294.5 200.833,294.5 207.5,294.5C 207.5,293.167 207.5,291.833 207.5,290.5 Z"/></g>
<g><path style="opacity:1" fill="#8b8b8a" d="M 223.5,287.5 C 223.5,290.167 223.5,292.833 223.5,295.5C 220.287,295.81 217.287,295.477 214.5,294.5C 217.167,294.5 219.833,294.5 222.5,294.5C 222.198,291.941 222.532,289.607 223.5,287.5 Z"/></g>
<g><path style="opacity:1" fill="#d7d7d7" d="M 320.5,293.5 C 323.91,293.384 325.244,295.05 324.5,298.5C 322.833,298.5 321.167,298.5 319.5,298.5C 319.366,296.708 319.699,295.042 320.5,293.5 Z"/></g>
<g><path style="opacity:1" fill="#f4f5f4" d="M 253.5,297.5 C 252.081,298.451 250.415,298.784 248.5,298.5C 248.238,297.022 248.571,295.689 249.5,294.5C 250.283,296.288 251.616,297.288 253.5,297.5 Z"/></g>
<g><path style="opacity:1" fill="#828180" d="M 253.5,297.5 C 254.5,297.5 255.5,297.5 256.5,297.5C 255.833,298.167 255.167,298.833 254.5,299.5C 252.265,299.795 250.265,299.461 248.5,298.5C 250.415,298.784 252.081,298.451 253.5,297.5 Z"/></g>
<g><path style="opacity:1" fill="#e3e3e3" d="M 254.5,299.5 C 255.167,298.833 255.833,298.167 256.5,297.5C 258.017,297.489 259.184,296.823 260,295.5C 262.706,298.978 265.706,299.311 269,296.5C 271.496,300.002 274.329,300.335 277.5,297.5C 280.5,300.167 283.5,300.167 286.5,297.5C 289.417,299.734 292.583,300.067 296,298.5C 299.795,301.375 303.295,301.042 306.5,297.5C 307.981,298.48 309.315,299.647 310.5,301C 312.809,301.756 314.809,301.256 316.5,299.5C 318.637,300.868 320.97,301.868 323.5,302.5C 321.167,302.833 318.833,303.167 316.5,303.5C 295.838,301.976 275.171,300.643 254.5,299.5 Z"/></g>
<g><path style="opacity:1" fill="#838383" d="M 209.5,302.5 C 198.833,302.5 188.167,302.5 177.5,302.5C 177.5,304.167 177.5,305.833 177.5,307.5C 176.539,305.735 176.205,303.735 176.5,301.5C 187.679,301.172 198.679,301.505 209.5,302.5 Z"/></g>
<g><path style="opacity:1" fill="#fafafa" d="M 209.5,302.5 C 210.468,304.607 210.802,306.941 210.5,309.5C 199.302,309.601 188.302,308.934 177.5,307.5C 177.5,305.833 177.5,304.167 177.5,302.5C 188.167,302.5 198.833,302.5 209.5,302.5 Z"/></g>
<g><path style="opacity:1" fill="#b7b7b7" d="M 226.5,303.5 C 223.5,303.5 220.5,303.5 217.5,303.5C 217.5,305.5 217.5,307.5 217.5,309.5C 216.532,307.393 216.198,305.059 216.5,302.5C 220.042,302.187 223.375,302.521 226.5,303.5 Z"/></g>
<g><path style="opacity:1" fill="#fefffe" d="M 226.5,303.5 C 226.5,305.5 226.5,307.5 226.5,309.5C 223.5,309.5 220.5,309.5 217.5,309.5C 217.5,307.5 217.5,305.5 217.5,303.5C 220.5,303.5 223.5,303.5 226.5,303.5 Z"/></g>
<g><path style="opacity:1" fill="#fdfdfd" d="M 232.5,303.5 C 233.5,303.5 234.5,303.5 235.5,303.5C 235.5,305.5 235.5,307.5 235.5,309.5C 234.5,309.5 233.5,309.5 232.5,309.5C 232.5,307.5 232.5,305.5 232.5,303.5 Z"/></g>
<g><path style="opacity:1" fill="#4d4d4c" d="M 76.5,335.5 C 75.5064,326.348 75.1731,317.015 75.5,307.5C 61.1667,307.5 46.8333,307.5 32.5,307.5C 32.8222,313.358 32.4889,319.025 31.5,324.5C 31.5,318.5 31.5,312.5 31.5,306.5C 46.5,306.5 61.5,306.5 76.5,306.5C 76.5,316.167 76.5,325.833 76.5,335.5 Z"/></g>
<g><path style="opacity:1" fill="#a4a4a4" d="M 232.5,303.5 C 233.568,302.566 234.901,302.232 236.5,302.5C 236.232,305.119 236.565,307.619 237.5,310C 235.613,310.78 233.946,310.613 232.5,309.5C 233.5,309.5 234.5,309.5 235.5,309.5C 235.5,307.5 235.5,305.5 235.5,303.5C 234.5,303.5 233.5,303.5 232.5,303.5 Z"/></g>
<g><path style="opacity:1" fill="#707070" d="M 183.5,316.5 C 190.982,315.508 198.648,315.175 206.5,315.5C 206.819,320.363 206.486,325.03 205.5,329.5C 205.5,325.167 205.5,320.833 205.5,316.5C 198.167,316.5 190.833,316.5 183.5,316.5 Z"/></g>
<g><path style="opacity:1" fill="#696969" d="M 267.5,316.5 C 255.833,316.5 244.167,316.5 232.5,316.5C 232.5,320.167 232.5,323.833 232.5,327.5C 231.517,323.702 231.183,319.702 231.5,315.5C 243.678,315.172 255.678,315.505 267.5,316.5 Z"/></g>
<g><path style="opacity:1" fill="#fafafa" d="M 183.5,316.5 C 190.833,316.5 198.167,316.5 205.5,316.5C 205.5,320.833 205.5,325.167 205.5,329.5C 204.894,341.157 204.561,352.824 204.5,364.5C 198.306,365 193.139,363 189,358.5C 187.128,349.471 185.128,340.471 183,331.5C 182.222,326.416 182.389,321.416 183.5,316.5 Z"/></g>
<g><path style="opacity:1" fill="#fafaf9" d="M 213.5,316.5 C 217.5,316.5 221.5,316.5 225.5,316.5C 226.153,334.864 225.487,352.864 223.5,370.5C 217.741,369.581 212.074,368.247 206.5,366.5C 208.648,349.794 210.982,333.128 213.5,316.5 Z"/></g>
<g><path style="opacity:1" fill="#fdfdfd" d="M 267.5,316.5 C 284.167,316.5 300.833,316.5 317.5,316.5C 319.355,332.483 321.022,348.483 322.5,364.5C 309.5,365.167 296.5,365.833 283.5,366.5C 275.777,367.231 268.11,368.398 260.5,370C 252.793,372.196 245.127,374.363 237.5,376.5C 235.681,360.197 234.015,343.863 232.5,327.5C 232.5,323.833 232.5,320.167 232.5,316.5C 244.167,316.5 255.833,316.5 267.5,316.5 Z"/></g>
<g><path style="opacity:1" fill="#f8f8f8" d="M 323.5,315.5 C 328.5,315.5 333.5,315.5 338.5,315.5C 341.988,338.459 345.321,361.459 348.5,384.5C 344.5,384.5 340.5,384.5 336.5,384.5C 334.578,377.317 332.078,370.317 329,363.5C 327.001,347.51 325.168,331.51 323.5,315.5 Z"/></g>
<g><path style="opacity:1" fill="#979797" d="M 353.5,300.5 C 354.823,310.674 354.823,321.007 353.5,331.5C 352.893,331.376 352.56,331.043 352.5,330.5C 353.494,320.681 353.827,310.681 353.5,300.5 Z"/></g>
<g><path style="opacity:1" fill="#fcfcfc" d="M 347.5,337.5 C 352.928,340.945 358.928,342.278 365.5,341.5C 373.317,341.558 380.984,340.558 388.5,338.5C 388.521,354.176 388.187,369.843 387.5,385.5C 376.5,385.5 365.5,385.5 354.5,385.5C 351.95,369.536 349.617,353.536 347.5,337.5 Z"/></g>
<g><path style="opacity:1" fill="#f1f1f1" d="M 65.5,394.5 C 65.8261,403.017 65.4927,411.35 64.5,419.5C 61.8566,400.499 57.6899,381.833 52,363.5C 50.4149,355.495 50.2483,347.495 51.5,339.5C 52.868,338.406 54.0347,338.74 55,340.5C 58.948,358.407 62.448,376.407 65.5,394.5 Z"/></g>
<g><path style="opacity:1" fill="#f6f6f6" d="M 151.5,345.5 C 160.705,344.801 169.372,346.635 177.5,351C 184.723,359.28 189.39,368.78 191.5,379.5C 189.473,379.662 187.473,379.495 185.5,379C 182.468,371.976 177.968,366.143 172,361.5C 173.697,368.929 176.031,376.263 179,383.5C 179.499,387.821 179.666,392.154 179.5,396.5C 177.61,396.703 176.11,396.037 175,394.5C 171.766,385.46 167.766,376.793 163,368.5C 163.848,376.709 166.515,384.375 171,391.5C 172.129,399.27 170.129,400.27 165,394.5C 161.094,385.682 156.427,377.348 151,369.5C 153.679,378.856 157.179,388.022 161.5,397C 161.266,398.732 160.266,399.566 158.5,399.5C 156.272,398.781 154.439,397.448 153,395.5C 148.752,387.753 145.086,379.753 142,371.5C 141.634,378.325 143.301,384.658 147,390.5C 147.495,392.473 147.662,394.473 147.5,396.5C 143.853,396.378 141.019,394.712 139,391.5C 134.144,381.278 131.144,370.611 130,359.5C 131.458,357.04 133.291,354.873 135.5,353C 140.542,349.643 145.876,347.143 151.5,345.5 Z"/></g>
<g><path style="opacity:1" fill="#9d9d9d" d="M 213.5,316.5 C 217.634,315.515 221.968,315.182 226.5,315.5C 226.5,334.167 226.5,352.833 226.5,371.5C 225.209,371.737 224.209,371.404 223.5,370.5C 225.487,352.864 226.153,334.864 225.5,316.5C 221.5,316.5 217.5,316.5 213.5,316.5 Z"/></g>
<g><path style="opacity:1" fill="#101010" d="M 405.5,356.5 C 408.238,355.965 410.072,356.965 411,359.5C 412.29,363.73 412.79,368.064 412.5,372.5C 409.348,373.041 406.848,372.041 405,369.5C 404.232,365.08 404.398,360.747 405.5,356.5 Z"/></g>
<g><path style="opacity:1" fill="#4d4d4d" d="M 322.5,364.5 C 323.043,364.56 323.376,364.893 323.5,365.5C 310.183,366.499 296.85,366.833 283.5,366.5C 296.5,365.833 309.5,365.167 322.5,364.5 Z"/></g>
<g><path style="opacity:1" fill="#fafaf9" d="M 196.5,370.5 C 207.486,372.551 218.153,375.717 228.5,380C 231,381.167 232.833,383 234,385.5C 238.993,410.638 245.16,435.472 252.5,460C 252.167,460.5 251.833,461 251.5,461.5C 235.833,456.334 219.833,452.501 203.5,450C 187.101,449.597 170.767,449.43 154.5,449.5C 152.394,433.86 150.394,418.193 148.5,402.5C 158.814,403.218 169.147,403.052 179.5,402C 181.667,401.167 183.167,399.667 184,397.5C 185.266,393.605 185.766,389.605 185.5,385.5C 195.734,385.27 199.401,380.27 196.5,370.5 Z"/></g>
<g><path style="opacity:1" fill="#fafafa" d="M 284.5,370.5 C 298.516,370.167 312.516,370.501 326.5,371.5C 335.167,394.664 342.833,418.164 349.5,442C 349.415,443.107 349.081,444.107 348.5,445C 342.212,447.207 335.879,449.207 329.5,451C 313.845,452.475 298.178,453.809 282.5,455C 274.349,456.495 266.516,458.995 259,462.5C 258.5,462.167 258,461.833 257.5,461.5C 252.126,438.338 246.293,415.338 240,392.5C 238.376,385.255 241.21,380.755 248.5,379C 260.407,375.188 272.407,372.355 284.5,370.5 Z"/></g>
<g><path style="opacity:1" fill="#090909" d="M 296.5,386.5 C 299.833,386.5 303.167,386.5 306.5,386.5C 306.5,389.5 306.5,392.5 306.5,395.5C 306.818,400.032 306.485,404.366 305.5,408.5C 301.326,402.154 297.659,395.488 294.5,388.5C 295.167,387.833 295.833,387.167 296.5,386.5 Z"/></g>
<g><path style="opacity:1" fill="#797979" d="M 296.5,386.5 C 295.833,387.167 295.167,387.833 294.5,388.5C 293.957,388.44 293.624,388.107 293.5,387.5C 294.325,386.614 295.325,386.281 296.5,386.5 Z"/></g>
<g><path style="opacity:1" fill="#0f0f0f" d="M 257.5,390.5 C 261.753,389.986 265.587,390.986 269,393.5C 272.325,402.681 269.158,406.515 259.5,405C 252.51,400.908 251.844,396.075 257.5,390.5 Z"/></g>
<g><path style="opacity:1" fill="#fbfbfb" d="M 134.5,454.5 C 134.5,455.833 134.5,457.167 134.5,458.5C 123.5,458.5 112.5,458.5 101.5,458.5C 102.295,455.577 103.628,452.91 105.5,450.5C 95.4599,444.777 89.6265,436.11 88,424.5C 86.132,413.576 85.2986,402.576 85.5,391.5C 98.8333,391.5 112.167,391.5 125.5,391.5C 128.783,412.481 131.783,433.481 134.5,454.5 Z"/></g>
<g><path style="opacity:1" fill="#f9f9f9" d="M 340.5,391.5 C 354.5,391.5 368.5,391.5 382.5,391.5C 379.939,410.625 371.606,426.625 357.5,439.5C 355.541,436.829 354.041,433.829 353,430.5C 348.933,417.467 344.767,404.467 340.5,391.5 Z"/></g>
<g><path style="opacity:1" fill="#7a7a7a" d="M 306.5,395.5 C 307.812,400.015 307.812,404.682 306.5,409.5C 305.893,409.376 305.56,409.043 305.5,408.5C 306.485,404.366 306.818,400.032 306.5,395.5 Z"/></g>
<g><path style="opacity:1" fill="#c4c4c4" d="M 65.5,394.5 C 66.8218,403.342 66.8218,412.342 65.5,421.5C 64.7025,421.043 64.3691,420.376 64.5,419.5C 65.4927,411.35 65.8261,403.017 65.5,394.5 Z"/></g>
<g><path style="opacity:1" fill="#787878" d="M 180.5,417.5 C 179.167,417.5 177.833,417.5 176.5,417.5C 176.5,419.5 176.5,421.5 176.5,423.5C 175.532,421.393 175.198,419.059 175.5,416.5C 177.415,416.216 179.081,416.549 180.5,417.5 Z"/></g>
<g><path style="opacity:1" fill="#6e6e6e" d="M 226.5,417.5 C 227.919,416.549 229.585,416.216 231.5,416.5C 231.5,417.833 231.5,419.167 231.5,420.5C 230.596,419.791 230.263,418.791 230.5,417.5C 229.167,417.5 227.833,417.5 226.5,417.5 Z"/></g>
<g><path style="opacity:1" fill="#747474" d="M 54.5,410.5 C 53.8333,414.5 53.1667,418.5 52.5,422.5C 52.1725,417.456 52.5059,412.456 53.5,407.5C 54.3857,408.325 54.719,409.325 54.5,410.5 Z"/></g>
<g><path style="opacity:1" fill="#090909" d="M 180.5,417.5 C 181.15,419.435 181.483,421.435 181.5,423.5C 179.833,423.5 178.167,423.5 176.5,423.5C 176.5,421.5 176.5,419.5 176.5,417.5C 177.833,417.5 179.167,417.5 180.5,417.5 Z"/></g>
<g><path style="opacity:1" fill="#1e1e1e" d="M 191.5,420.5 C 190.448,422.256 188.781,422.923 186.5,422.5C 186.167,420.5 185.833,418.5 185.5,416.5C 189.241,415.599 191.241,416.932 191.5,420.5 Z"/></g>
<g><path style="opacity:1" fill="#151515" d="M 206.5,417.5 C 207.833,417.5 209.167,417.5 210.5,417.5C 210.833,419.5 211.167,421.5 211.5,423.5C 209.833,423.5 208.167,423.5 206.5,423.5C 206.5,421.5 206.5,419.5 206.5,417.5 Z"/></g>
<g><path style="opacity:1" fill="#141414" d="M 217.5,417.5 C 221.485,417.44 223.152,419.44 222.5,423.5C 218.092,423.938 216.425,421.938 217.5,417.5 Z"/></g>
<g><path style="opacity:1" fill="#040304" d="M 226.5,417.5 C 227.833,417.5 229.167,417.5 230.5,417.5C 230.263,418.791 230.596,419.791 231.5,420.5C 231.5,421.5 231.5,422.5 231.5,423.5C 230.167,423.5 228.833,423.5 227.5,423.5C 227.675,421.379 227.341,419.379 226.5,417.5 Z"/></g>
<g><path style="opacity:1" fill="#212121" d="M 164.5,417.5 C 166.5,417.5 168.5,417.5 170.5,417.5C 170.5,419.833 170.5,422.167 170.5,424.5C 168.833,424.5 167.167,424.5 165.5,424.5C 165.007,422.194 164.674,419.861 164.5,417.5 Z"/></g>
<g><path style="opacity:1" fill="#1c1c1c" d="M 312.5,418.5 C 314.167,418.5 315.833,418.5 317.5,418.5C 317.387,421.049 318.054,423.382 319.5,425.5C 317.833,426.833 316.167,426.833 314.5,425.5C 313.423,423.271 312.756,420.937 312.5,418.5 Z"/></g>
<g><path style="opacity:1" fill="#202020" d="M 322.5,418.5 C 327.459,418.01 330.126,420.344 330.5,425.5C 328.604,426.466 326.604,426.799 324.5,426.5C 324.037,423.779 323.371,421.112 322.5,418.5 Z"/></g>
<g><path style="opacity:1" fill="#222222" d="M 260.5,419.5 C 264.803,419.735 266.47,422.069 265.5,426.5C 263.856,426.714 262.356,426.38 261,425.5C 260.505,423.527 260.338,421.527 260.5,419.5 Z"/></g>
<g><path style="opacity:1" fill="#0b0b0b" d="M 269.5,419.5 C 273.485,419.44 275.152,421.44 274.5,425.5C 273.167,425.5 271.833,425.5 270.5,425.5C 270.167,423.5 269.833,421.5 269.5,419.5 Z"/></g>
<g><path style="opacity:1" fill="#131313" d="M 278.5,419.5 C 280.167,419.5 281.833,419.5 283.5,419.5C 283.674,421.861 284.007,424.194 284.5,426.5C 280.446,426.114 278.446,423.78 278.5,419.5 Z"/></g>
<g><path style="opacity:1" fill="#181818" d="M 302.5,419.5 C 303.833,419.5 305.167,419.5 306.5,419.5C 306.993,421.806 307.326,424.139 307.5,426.5C 305.856,426.714 304.356,426.38 303,425.5C 302.505,423.527 302.338,421.527 302.5,419.5 Z"/></g>
<g><path style="opacity:1" fill="#868686" d="M 191.5,420.5 C 192.404,421.209 192.737,422.209 192.5,423.5C 190.265,423.795 188.265,423.461 186.5,422.5C 188.781,422.923 190.448,422.256 191.5,420.5 Z"/></g>
<g><path style="opacity:1" fill="#f5f5f5" d="M 380.5,423.5 C 389.447,423.423 393.28,427.756 392,436.5C 390.098,441.4 386.598,444.567 381.5,446C 374.553,446.485 368.22,448.651 362.5,452.5C 366.35,454.591 370.35,456.424 374.5,458C 375.711,458.893 375.711,459.726 374.5,460.5C 365.996,463.293 357.329,465.459 348.5,467C 351.691,470.69 354.691,474.523 357.5,478.5C 355.235,479.647 352.902,479.814 350.5,479C 337.277,471.72 323.611,465.553 309.5,460.5C 310.025,459.808 310.692,459.308 311.5,459C 341.578,460.298 364.578,448.464 380.5,423.5 Z"/></g>
<g><path style="opacity:1" fill="#171717" d="M 230.5,432.5 C 232.144,432.286 233.644,432.62 235,433.5C 235.497,435.81 235.663,438.143 235.5,440.5C 234.167,440.5 232.833,440.5 231.5,440.5C 231.599,437.763 231.265,435.096 230.5,432.5 Z"/></g>
<g><path style="opacity:1" fill="#131313" d="M 332.5,436.5 C 332.5,437.5 332.5,438.5 332.5,439.5C 330.708,439.634 329.042,439.301 327.5,438.5C 327.579,437.07 327.246,435.736 326.5,434.5C 328.396,433.534 330.396,433.201 332.5,433.5C 332.5,434.5 332.5,435.5 332.5,436.5 Z"/></g>
<g><path style="opacity:1" fill="#191918" d="M 166.5,434.5 C 168.167,434.5 169.833,434.5 171.5,434.5C 171.5,436.5 171.5,438.5 171.5,440.5C 170.167,440.5 168.833,440.5 167.5,440.5C 167.167,438.5 166.833,436.5 166.5,434.5 Z"/></g>
<g><path style="opacity:1" fill="#040404" d="M 182.5,435.5 C 182.5,436.833 182.5,438.167 182.5,439.5C 180.833,439.5 179.167,439.5 177.5,439.5C 177.5,438.5 177.5,437.5 177.5,436.5C 178.607,434.153 180.274,433.82 182.5,435.5 Z"/></g>
<g><path style="opacity:1" fill="#181818" d="M 188.5,433.5 C 193.161,432.832 195.161,434.832 194.5,439.5C 192.833,439.5 191.167,439.5 189.5,439.5C 189.167,437.5 188.833,435.5 188.5,433.5 Z"/></g>
<g><path style="opacity:1" fill="#1c1c1c" d="M 208.5,433.5 C 210.5,433.5 212.5,433.5 214.5,433.5C 214.5,435.833 214.5,438.167 214.5,440.5C 212.833,440.5 211.167,440.5 209.5,440.5C 209.326,438.139 208.993,435.806 208.5,433.5 Z"/></g>
<g><path style="opacity:1" fill="#212121" d="M 219.5,433.5 C 224.495,433.125 226.495,435.458 225.5,440.5C 223.856,440.714 222.356,440.38 221,439.5C 220.495,437.482 219.995,435.482 219.5,433.5 Z"/></g>
<g><path style="opacity:1" fill="#232323" d="M 306.5,434.5 C 308.167,434.5 309.833,434.5 311.5,434.5C 311.993,436.806 312.326,439.139 312.5,441.5C 310.833,441.5 309.167,441.5 307.5,441.5C 307.326,439.139 306.993,436.806 306.5,434.5 Z"/></g>
<g><path style="opacity:1" fill="#1a1b1a" d="M 317.5,433.5 C 322.495,433.125 324.495,435.458 323.5,440.5C 321.833,440.5 320.167,440.5 318.5,440.5C 318.552,438.097 318.219,435.764 317.5,433.5 Z"/></g>
<g><path style="opacity:1" fill="#555555" d="M 182.5,435.5 C 180.274,433.82 178.607,434.153 177.5,436.5C 176.596,435.791 176.263,434.791 176.5,433.5C 179.082,433.025 181.082,433.692 182.5,435.5 Z"/></g>
<g><path style="opacity:1" fill="#242423" d="M 263.5,434.5 C 265.144,434.286 266.644,434.62 268,435.5C 268.822,438.117 269.322,440.784 269.5,443.5C 267.833,443.5 266.167,443.5 264.5,443.5C 264.492,440.455 264.159,437.455 263.5,434.5 Z"/></g>
<g><path style="opacity:1" fill="#212121" d="M 272.5,434.5 C 277.556,434.545 279.889,437.212 279.5,442.5C 277.833,442.5 276.167,442.5 274.5,442.5C 274.037,439.779 273.371,437.112 272.5,434.5 Z"/></g>
<g><path style="opacity:1" fill="#272727" d="M 283.5,434.5 C 285.5,434.5 287.5,434.5 289.5,434.5C 289.993,436.806 290.326,439.139 290.5,441.5C 285.372,442.137 283.038,439.804 283.5,434.5 Z"/></g>
<g><path style="opacity:1" fill="#686767" d="M 332.5,436.5 C 333.434,437.568 333.768,438.901 333.5,440.5C 330.918,440.975 328.918,440.308 327.5,438.5C 329.042,439.301 330.708,439.634 332.5,439.5C 332.5,438.5 332.5,437.5 332.5,436.5 Z"/></g>
<g><path style="opacity:1" fill="#f7f7f7" d="M 414.5,440.5 C 420.865,439.901 426.865,441.068 432.5,444C 435.792,446.412 436.959,449.579 436,453.5C 424.841,462.63 415.341,461.13 407.5,449C 408.959,445.381 411.293,442.547 414.5,440.5 Z"/></g>
<g><path style="opacity:1" fill="#a8a8a7" d="M 91.5,445.5 C 91.5,445.833 91.5,446.167 91.5,446.5C 89.5491,445.284 88.0491,443.618 87,441.5C 81.5791,431.905 78.7458,421.572 78.5,410.5C 78.5283,406.101 79.0283,405.768 80,409.5C 80.5533,422.656 84.3866,434.656 91.5,445.5 Z"/></g>
<g><path style="opacity:1" fill="#030303" d="M 109.5,490.5 C 108.532,492.607 108.198,494.941 108.5,497.5C 79.8333,497.5 51.1667,497.5 22.5,497.5C 22.5,495.167 22.5,492.833 22.5,490.5C 34.8713,490.3 41.7047,483.966 43,471.5C 43.3333,468.833 43.6667,466.167 44,463.5C 50.4913,458.859 55.3246,452.859 58.5,445.5C 63.8653,450.184 69.8653,453.85 76.5,456.5C 77.3303,462.472 77.8303,468.472 78,474.5C 80.5683,481.401 85.4017,485.901 92.5,488C 98.5879,487.874 104.255,488.708 109.5,490.5 Z"/></g>
<g><path style="opacity:1" fill="#f5f5f4" d="M 385.5,450.5 C 389.846,450.334 394.179,450.501 398.5,451C 401.907,452.739 404.24,455.406 405.5,459C 403.652,461.093 401.319,462.426 398.5,463C 395.183,463.498 391.85,463.665 388.5,463.5C 387.965,459.563 386.632,455.896 384.5,452.5C 384.863,451.817 385.196,451.15 385.5,450.5 Z"/></g>
<g><path style="opacity:1" fill="#464645" d="M 134.5,454.5 C 135.451,455.919 135.784,457.585 135.5,459.5C 123.988,459.828 112.654,459.495 101.5,458.5C 112.5,458.5 123.5,458.5 134.5,458.5C 134.5,457.167 134.5,455.833 134.5,454.5 Z"/></g>
<g><path style="opacity:1" fill="#f9f9f9" d="M 235.5,491.5 C 226.524,484.511 216.524,479.344 205.5,476C 201.221,474.756 196.888,474.423 192.5,475C 202.523,478.259 210.689,484.092 217,492.5C 217.494,494.134 217.66,495.801 217.5,497.5C 210.104,497.8 202.771,497.3 195.5,496C 185.541,491.355 175.541,486.689 165.5,482C 159.944,480.028 154.278,478.528 148.5,477.5C 142.654,476.183 136.654,476.183 130.5,477.5C 130.624,478.107 130.957,478.44 131.5,478.5C 140.141,483.155 148.474,488.321 156.5,494C 149.833,494.667 143.167,494.667 136.5,494C 119.852,491.025 107.518,482.191 99.5,467.5C 127.354,466.423 155.187,465.09 183,463.5C 200.543,463.414 218.043,464.247 235.5,466C 243.134,467.408 250.467,469.741 257.5,473C 266.79,479.955 275.79,487.288 284.5,495C 267.734,500.327 251.401,499.161 235.5,491.5 Z"/></g>
<g><path style="opacity:1" fill="#f8f8f8" d="M 283.5,462.5 C 293.67,462.242 303.337,464.408 312.5,469C 319.833,472.667 327.167,476.333 334.5,480C 342.308,482.562 350.308,484.228 358.5,485C 359.833,486.333 359.833,487.667 358.5,489C 344.13,495.537 330.13,494.704 316.5,486.5C 316.167,486.833 315.833,487.167 315.5,487.5C 316.833,489.5 318.167,491.5 319.5,493.5C 304.926,494.594 291.259,491.427 278.5,484C 272.41,480.54 266.577,476.706 261,472.5C 260.135,470.112 260.968,468.612 263.5,468C 270.388,466.596 277.055,464.763 283.5,462.5 Z"/></g>
<g><path style="opacity:1" fill="#f4f4f4" d="M 405.5,464.5 C 414.984,462.5 422.818,465.166 429,472.5C 428.983,476.485 426.817,478.652 422.5,479C 415.129,480.31 408.129,479.31 401.5,476C 399.773,474.611 398.439,472.944 397.5,471C 399.715,468.286 402.382,466.119 405.5,464.5 Z"/></g>
<g><path style="opacity:1" fill="#757475" d="M 18.5,465.5 C 20.2646,466.461 22.2646,466.795 24.5,466.5C 22.3066,467.797 19.9732,467.797 17.5,466.5C 17.6236,465.893 17.9569,465.56 18.5,465.5 Z"/></g>
<g><path style="opacity:1" fill="#f8f8f8" d="M 369.5,466.5 C 375.262,466.149 380.928,466.649 386.5,468C 390.466,470.964 394.133,474.297 397.5,478C 395.17,480.167 392.503,481.834 389.5,483C 383.167,483.667 376.833,483.667 370.5,483C 361.652,477.839 361.319,472.339 369.5,466.5 Z"/></g>
<g><path style="opacity:1" fill="#1a1a1a" d="M 235.5,491.5 C 234.508,491.328 233.842,491.662 233.5,492.5C 228.106,488.894 222.439,486.06 216.5,484C 220.906,488.643 223.24,494.143 223.5,500.5C 215.458,501.959 207.458,501.792 199.5,500C 188.381,495.274 177.381,490.274 166.5,485C 160.262,482.692 153.929,480.859 147.5,479.5C 147.833,478.833 148.167,478.167 148.5,477.5C 154.278,478.528 159.944,480.028 165.5,482C 175.541,486.689 185.541,491.355 195.5,496C 202.771,497.3 210.104,497.8 217.5,497.5C 217.66,495.801 217.494,494.134 217,492.5C 210.689,484.092 202.523,478.259 192.5,475C 196.888,474.423 201.221,474.756 205.5,476C 216.524,479.344 226.524,484.511 235.5,491.5 Z"/></g>
<g><path style="opacity:1" fill="#676667" d="M 148.5,477.5 C 142.642,477.178 136.975,477.511 131.5,478.5C 130.957,478.44 130.624,478.107 130.5,477.5C 136.654,476.183 142.654,476.183 148.5,477.5 Z"/></g>
<g><path style="opacity:1" fill="#f5f5f5" d="M 398.5,484.5 C 405.91,483.045 412.077,485.045 417,490.5C 418.525,499.022 415.025,501.855 406.5,499C 400.48,497.958 395.813,494.958 392.5,490C 394.282,487.94 396.282,486.107 398.5,484.5 Z"/></g>
<g><path style="opacity:1" fill="#f1f1f1" d="M 436.5,484.5 C 437.026,486.23 438.026,487.564 439.5,488.5C 441.051,490.913 441.717,493.579 441.5,496.5C 437.154,496.666 432.821,496.499 428.5,496C 423.056,494.081 420.723,490.415 421.5,485C 426.504,483.542 431.504,483.375 436.5,484.5 Z"/></g>
<g><path style="opacity:1" fill="#818180" d="M 439.5,481.5 C 444.226,484.947 446.892,489.614 447.5,495.5C 445.364,493.188 443.364,490.688 441.5,488C 440.563,487.308 439.897,487.475 439.5,488.5C 438.026,487.564 437.026,486.23 436.5,484.5C 437.694,483.728 438.694,482.728 439.5,481.5 Z"/></g>
<g><path style="opacity:1" fill="#f2f2f2" d="M 370.5,488.5 C 377.018,487.123 382.185,489.123 386,494.5C 386.781,495.944 386.614,497.277 385.5,498.5C 379.798,499.895 374.131,499.729 368.5,498C 366.415,496.959 364.748,495.459 363.5,493.5C 365.724,491.566 368.058,489.899 370.5,488.5 Z"/></g>
<g><path style="opacity:1" fill="#454544" d="M 22.5,490.5 C 22.5,492.833 22.5,495.167 22.5,497.5C 51.1667,497.5 79.8333,497.5 108.5,497.5C 108.198,494.941 108.532,492.607 109.5,490.5C 109.5,493.167 109.5,495.833 109.5,498.5C 80.1667,498.5 50.8333,498.5 21.5,498.5C 21.1936,495.615 21.5269,492.948 22.5,490.5 Z"/></g>
</svg>
